<svg width="29" height="38" viewBox="0 0 29 38" fill="none" xmlns="http://www.w3.org/2000/svg">
<defs>
<linearGradient id="paint0_linear" x1="14.1698" y1="0" x2="14.1698" y2="37.7863" gradientUnits="userSpaceOnUse">
<stop stop-color="#71B5F1"/>
<stop offset="1" stop-color="#3088D6"/>
</linearGradient>
<clipPath id="clip0">
<rect width="28.3397" height="37.7863" fill="white"/>
</clipPath>
</defs>
<g clip-path="url(#clip0)">
<mask id="path-1-inside-1" fill="white">
<path d="M12.7136 37.0239C1.99042 21.4785 0 19.883 0 14.1698C0 6.34403 6.34403 0 14.1698 0C21.9957 0 28.3397 6.34403 28.3397 14.1698C28.3397 19.883 26.3493 21.4785 15.6261 37.0239C14.9224 38.0404 13.4172 38.0404 12.7136 37.0239Z"/>
</mask>
<path d="M12.7136 37.0239C1.99042 21.4785 0 19.883 0 14.1698C0 6.34403 6.34403 0 14.1698 0C21.9957 0 28.3397 6.34403 28.3397 14.1698C28.3397 19.883 26.3493 21.4785 15.6261 37.0239C14.9224 38.0404 13.4172 38.0404 12.7136 37.0239Z" fill="url(#paint0_linear)" stroke="#19608C" stroke-width="4" mask="url(#path-1-inside-1)"/>
<circle cx="14" cy="14" r="5" fill="#3088D6"/>
</g>
</svg>
