<svg id="Layer_1" data-name="Layer 1" xmlns="http://www.w3.org/2000/svg" xmlns:xlink="http://www.w3.org/1999/xlink" viewBox="0 0 58.71 40.17"><defs><style>.cls-1{fill:none;}.cls-2{clip-path:url(#clip-path);}.cls-3{clip-path:url(#clip-path-2);}.cls-4{clip-path:url(#clip-path-3);}.cls-5{clip-path:url(#clip-path-4);}.cls-6{fill:#010101;}.cls-7{clip-path:url(#clip-path-5);}.cls-8{clip-path:url(#clip-path-6);}.cls-9{clip-path:url(#clip-path-7);}.cls-10{clip-path:url(#clip-path-8);}.cls-11{clip-path:url(#clip-path-9);}.cls-12{clip-path:url(#clip-path-10);}</style><clipPath id="clip-path"><polygon class="cls-1" points="-128.07 18.53 -118.36 28.25 -115.92 25.81 -128.07 13.69 -140.22 25.81 -137.79 28.25 -128.07 18.53"/></clipPath><clipPath id="clip-path-2"><polygon class="cls-1" points="-49.36 23.41 -39.64 13.69 -37.2 16.13 -49.36 28.25 -61.51 16.13 -59.07 13.69 -49.36 23.41"/></clipPath><clipPath id="clip-path-3"><path class="cls-1" d="M18.09,15.28V10.77H22.6V13h2.25V10.77h9V13h2.26V10.77h4.5v4.51ZM40.62,31.05H18.09V17.53H40.62Zm0-22.53h-4.5V6.27H33.86V8.52h-9V6.27H22.6V8.52H18.09a2.25,2.25,0,0,0-2.25,2.25V31.05a2.25,2.25,0,0,0,2.25,2.25H40.62a2.25,2.25,0,0,0,2.26-2.25V10.77A2.26,2.26,0,0,0,40.62,8.52Z"/></clipPath><clipPath id="clip-path-4"><rect class="cls-1" x="-1234.65" y="-131.17" width="1538.89" height="853.94"/></clipPath><clipPath id="clip-path-5"><path class="cls-1" d="M187.41,29.9c-5.24-5.66-8-10.68-8-14.92a8,8,0,0,1,2.15-6,8.77,8.77,0,0,1,11.75,0,8.22,8.22,0,0,1,2.23,6C195.44,19.22,192.69,24.22,187.41,29.9Zm7.23-22.33a10.64,10.64,0,0,0-14.54,0A10,10,0,0,0,177.37,15c0,4.92,3.23,10.66,9.31,17l.73.74.72-.74c6.14-6.39,9.28-12,9.32-17A10.06,10.06,0,0,0,194.64,7.57Z"/></clipPath><clipPath id="clip-path-6"><path class="cls-1" d="M187.41,16.45a1.74,1.74,0,0,1-1.6-1.08,1.71,1.71,0,0,1,.38-1.88,1.74,1.74,0,0,1,1.89-.36,1.71,1.71,0,0,1,1,1.61A1.73,1.73,0,0,1,187.41,16.45Zm0-5.73a4,4,0,1,0,4,4A4,4,0,0,0,187.41,10.72Z"/></clipPath><clipPath id="clip-path-7"><path class="cls-1" d="M252.33,24A8.95,8.95,0,0,1,265,11.34,8.95,8.95,0,0,1,252.33,24Zm22.73,8.55-7.85-7.82a11,11,0,1,0-1.54,1.56l7.85,7.85Z"/></clipPath><clipPath id="clip-path-8"><path class="cls-1" d="M344,19.6a3.39,3.39,0,1,1,3.39-3.39A3.39,3.39,0,0,1,344,19.6Zm0-9a5.65,5.65,0,1,0,5.65,5.65A5.65,5.65,0,0,0,344,10.56Z"/></clipPath><clipPath id="clip-path-9"><path class="cls-1" d="M353.49,29.3a1.41,1.41,0,0,0-.25-.61A10.33,10.33,0,0,0,335,28.46a6.38,6.38,0,0,0-.33.82,13.57,13.57,0,1,1,18.94,0Zm-17.14,1.47a10.77,10.77,0,0,1,.5-1.22,8.09,8.09,0,0,1,14.4.2,11.37,11.37,0,0,1,.43,1.07A13.79,13.79,0,0,1,344,33.17,13.61,13.61,0,0,1,336.35,30.77Zm7.69-27A15.83,15.83,0,1,0,359.87,19.6,15.83,15.83,0,0,0,344,3.77Z"/></clipPath><clipPath id="clip-path-10"><polygon class="cls-1" points="104.32 23.75 101.15 20.77 99 23.08 104.64 28.37 117.14 12.79 114.67 10.83 104.32 23.75"/></clipPath></defs><title>calendar-icon</title><g class="cls-4"><g class="cls-5"><rect class="cls-6" x="4.57" y="-5" width="49.57" height="49.57"/></g></g></svg>