<svg id="Layer_1" data-name="Layer 1" xmlns="http://www.w3.org/2000/svg" xmlns:xlink="http://www.w3.org/1999/xlink" viewBox="0 0 58.71 40.17"><defs><style>.cls-1{fill:none;}.cls-2{clip-path:url(#clip-path);}.cls-3{clip-path:url(#clip-path-2);}.cls-4{clip-path:url(#clip-path-3);}.cls-5{clip-path:url(#clip-path-4);}.cls-6{clip-path:url(#clip-path-5);}.cls-7{clip-path:url(#clip-path-6);}.cls-8{clip-path:url(#clip-path-7);}.cls-9{clip-path:url(#clip-path-8);}.cls-10{clip-path:url(#clip-path-9);}.cls-11{clip-path:url(#clip-path-10);}.cls-12{fill:#010101;}</style><clipPath id="clip-path"><polygon class="cls-1" points="-206.78 18.53 -197.07 28.25 -194.63 25.81 -206.78 13.69 -218.94 25.81 -216.5 28.25 -206.78 18.53"/></clipPath><clipPath id="clip-path-2"><polygon class="cls-1" points="-128.07 23.41 -118.36 13.69 -115.92 16.13 -128.07 28.25 -140.22 16.13 -137.79 13.69 -128.07 23.41"/></clipPath><clipPath id="clip-path-3"><path class="cls-1" d="M-60.62,15.28V10.77h4.5V13h2.26V10.77h9V13h2.25V10.77h4.51v4.51Zm22.53,15.77H-60.62V17.53h22.53Zm0-22.53H-42.6V6.27h-2.25V8.52h-9V6.27h-2.26V8.52h-4.5a2.26,2.26,0,0,0-2.26,2.25V31.05a2.25,2.25,0,0,0,2.26,2.25h22.53a2.25,2.25,0,0,0,2.25-2.25V10.77A2.25,2.25,0,0,0-38.09,8.52Z"/></clipPath><clipPath id="clip-path-4"><path class="cls-1" d="M108.69,29.9c-5.24-5.66-8-10.68-8-14.92a8,8,0,0,1,2.15-6,8.77,8.77,0,0,1,11.75,0,8.22,8.22,0,0,1,2.23,6C116.73,19.22,114,24.22,108.69,29.9Zm7.23-22.33a10.64,10.64,0,0,0-14.54,0A10.07,10.07,0,0,0,98.65,15c0,4.92,3.24,10.66,9.32,17l.72.74.73-.74c6.14-6.39,9.27-12,9.31-17A10,10,0,0,0,115.92,7.57Z"/></clipPath><clipPath id="clip-path-5"><path class="cls-1" d="M108.69,16.45a1.73,1.73,0,0,1-1.21-3,1.73,1.73,0,1,1,1.21,3Zm0-5.73a4,4,0,1,0,4,4A4,4,0,0,0,108.69,10.72Z"/></clipPath><clipPath id="clip-path-6"><path class="cls-1" d="M173.62,24a8.95,8.95,0,0,1,12.64-12.64A8.95,8.95,0,0,1,173.62,24Zm22.73,8.55-7.85-7.82A11,11,0,1,0,187,26.27l7.85,7.85Z"/></clipPath><clipPath id="clip-path-7"><path class="cls-1" d="M265.33,19.6a3.39,3.39,0,1,1,3.39-3.39A3.4,3.4,0,0,1,265.33,19.6Zm0-9A5.65,5.65,0,1,0,271,16.21,5.65,5.65,0,0,0,265.33,10.56Z"/></clipPath><clipPath id="clip-path-8"><path class="cls-1" d="M274.78,29.3a1.55,1.55,0,0,0-.25-.61,10.33,10.33,0,0,0-18.25-.23,6.45,6.45,0,0,0-.34.82,13.57,13.57,0,1,1,18.95,0Zm-17.14,1.47a10.77,10.77,0,0,1,.5-1.22,8.09,8.09,0,0,1,14.4.2c.16.34.29.7.43,1.07a13.79,13.79,0,0,1-7.64,2.35A13.61,13.61,0,0,1,257.64,30.77Zm7.69-27A15.83,15.83,0,1,0,281.15,19.6,15.83,15.83,0,0,0,265.33,3.77Z"/></clipPath><clipPath id="clip-path-9"><polygon class="cls-1" points="25.61 23.75 22.44 20.77 20.29 23.08 25.92 28.37 38.43 12.79 35.96 10.83 25.61 23.75"/></clipPath><clipPath id="clip-path-10"><rect class="cls-1" x="-1943.37" y="-195.59" width="2162.63" height="1200.05"/></clipPath></defs><title>checkmark-icon</title><g class="cls-10"><g class="cls-11"><rect class="cls-12" x="4.45" y="-5" width="49.81" height="49.21"/></g></g></svg>