<svg id="Layer_1" data-name="Layer 1" xmlns="http://www.w3.org/2000/svg" xmlns:xlink="http://www.w3.org/1999/xlink" viewBox="0 0 58.71 40.17"><defs><style>.cls-1{fill:none;}.cls-2{clip-path:url(#clip-path);}.cls-3{clip-path:url(#clip-path-2);}.cls-4{clip-path:url(#clip-path-3);}.cls-5{fill:#010101;}.cls-6{clip-path:url(#clip-path-4);}.cls-7{clip-path:url(#clip-path-5);}.cls-8{clip-path:url(#clip-path-6);}.cls-9{clip-path:url(#clip-path-7);}.cls-10{clip-path:url(#clip-path-8);}.cls-11{clip-path:url(#clip-path-9);}.cls-12{clip-path:url(#clip-path-10);}</style><clipPath id="clip-path"><polygon class="cls-1" points="-49.36 18.53 -39.64 28.25 -37.2 25.81 -49.36 13.69 -61.51 25.81 -59.07 28.25 -49.36 18.53"/></clipPath><clipPath id="clip-path-2"><polygon class="cls-1" points="29.36 23.41 39.07 13.69 41.51 16.13 29.36 28.25 17.2 16.13 19.64 13.69 29.36 23.41"/></clipPath><clipPath id="clip-path-3"><rect class="cls-1" x="-595.44" y="-905.93" width="2344.7" height="1301.09"/></clipPath><clipPath id="clip-path-4"><path class="cls-1" d="M96.8,15.28V10.77h4.51V13h2.25V10.77h9V13h2.25V10.77h4.51v4.51Zm22.54,15.77H96.8V17.53h22.54Zm0-22.53h-4.51V6.27h-2.25V8.52h-9V6.27h-2.25V8.52H96.8a2.25,2.25,0,0,0-2.25,2.25V31.05A2.25,2.25,0,0,0,96.8,33.3h22.54a2.25,2.25,0,0,0,2.25-2.25V10.77A2.25,2.25,0,0,0,119.34,8.52Z"/></clipPath><clipPath id="clip-path-5"><path class="cls-1" d="M266.12,29.9c-5.24-5.66-8-10.68-8-14.92a8,8,0,0,1,2.15-6A8.75,8.75,0,0,1,272,9a8.18,8.18,0,0,1,2.23,6C274.15,19.22,271.4,24.22,266.12,29.9Zm7.23-22.33a10.64,10.64,0,0,0-14.54,0A10,10,0,0,0,256.08,15c0,4.92,3.23,10.66,9.32,17l.72.74.72-.74c6.15-6.39,9.28-12,9.32-17A10.06,10.06,0,0,0,273.35,7.57Z"/></clipPath><clipPath id="clip-path-6"><path class="cls-1" d="M266.12,16.45a1.73,1.73,0,1,1,1.73-1.71A1.74,1.74,0,0,1,266.12,16.45Zm0-5.73a4,4,0,1,0,4,4A4,4,0,0,0,266.12,10.72Z"/></clipPath><clipPath id="clip-path-7"><path class="cls-1" d="M331,24a8.95,8.95,0,0,1,12.64-12.64A8.95,8.95,0,0,1,331,24Zm22.74,8.55-7.85-7.82a11,11,0,1,0-1.54,1.56l7.85,7.85Z"/></clipPath><clipPath id="clip-path-8"><path class="cls-1" d="M422.75,19.6a3.39,3.39,0,1,1,3.39-3.39A3.39,3.39,0,0,1,422.75,19.6Zm0-9a5.65,5.65,0,1,0,5.66,5.65A5.65,5.65,0,0,0,422.75,10.56Z"/></clipPath><clipPath id="clip-path-9"><path class="cls-1" d="M432.2,29.3a1.52,1.52,0,0,0-.24-.61,10.33,10.33,0,0,0-18.25-.23,5.26,5.26,0,0,0-.34.82,13.57,13.57,0,1,1,18.95,0Zm-17.13,1.47a10.71,10.71,0,0,1,.49-1.22,8.1,8.1,0,0,1,14.41.2c.15.34.29.7.43,1.07a13.8,13.8,0,0,1-7.65,2.35A13.6,13.6,0,0,1,415.07,30.77Zm7.68-27A15.83,15.83,0,1,0,438.58,19.6,15.82,15.82,0,0,0,422.75,3.77Z"/></clipPath><clipPath id="clip-path-10"><polygon class="cls-1" points="183.03 23.75 179.87 20.77 177.71 23.08 183.35 28.37 195.86 12.79 193.39 10.83 183.03 23.75"/></clipPath></defs><title>chevron-down-icon</title><g class="cls-3"><g class="cls-4"><rect class="cls-5" x="0.04" y="-3.47" width="58.63" height="48.89"/></g></g></svg>