<svg id="Layer_1" data-name="Layer 1" xmlns="http://www.w3.org/2000/svg" xmlns:xlink="http://www.w3.org/1999/xlink" viewBox="0 0 58.71 40.17"><defs><style>.cls-1{fill:none;}.cls-2{clip-path:url(#clip-path);}.cls-3{clip-path:url(#clip-path-2);}.cls-4{fill:#010101;}.cls-5{clip-path:url(#clip-path-3);}.cls-6{clip-path:url(#clip-path-4);}.cls-7{clip-path:url(#clip-path-5);}.cls-8{clip-path:url(#clip-path-6);}.cls-9{clip-path:url(#clip-path-7);}.cls-10{clip-path:url(#clip-path-8);}</style><clipPath id="clip-path"><polygon class="cls-1" points="29.36 18.53 39.07 28.25 41.51 25.81 29.36 13.69 17.2 25.81 19.64 28.25 29.36 18.53"/></clipPath><clipPath id="clip-path-2"><rect class="cls-1" x="-595.44" y="-353.22" width="2344.7" height="1301.09"/></clipPath><clipPath id="clip-path-3"><polygon class="cls-1" points="108.07 23.41 117.79 13.69 120.22 16.13 108.07 28.25 95.92 16.13 98.36 13.69 108.07 23.41"/></clipPath><clipPath id="clip-path-4"><path class="cls-1" d="M175.52,15.28V10.77H180V13h2.26V10.77h9V13h2.25V10.77h4.51v4.51Zm22.53,15.77H175.52V17.53h22.53Zm0-22.53h-4.51V6.27h-2.25V8.52h-9V6.27H180V8.52h-4.5a2.25,2.25,0,0,0-2.25,2.25V31.05a2.24,2.24,0,0,0,2.25,2.25h22.53a2.25,2.25,0,0,0,2.25-2.25V10.77A2.25,2.25,0,0,0,198.05,8.52Z"/></clipPath><clipPath id="clip-path-5"><path class="cls-1" d="M344.83,29.9c-5.24-5.66-8-10.68-8-14.92A8,8,0,0,1,339,9,8.77,8.77,0,0,1,350.7,9a8.22,8.22,0,0,1,2.23,6C352.87,19.22,350.12,24.22,344.83,29.9Zm7.23-22.33a10.64,10.64,0,0,0-14.54,0A10.07,10.07,0,0,0,334.79,15c0,4.92,3.24,10.66,9.32,17l.72.74.73-.74c6.14-6.39,9.27-12,9.31-17A10,10,0,0,0,352.06,7.57Z"/></clipPath><clipPath id="clip-path-6"><path class="cls-1" d="M344.83,16.45a1.73,1.73,0,0,1-1.21-3,1.73,1.73,0,1,1,1.21,3Zm0-5.73a4,4,0,1,0,4,4A4,4,0,0,0,344.83,10.72Z"/></clipPath><clipPath id="clip-path-7"><path class="cls-1" d="M409.76,24A8.95,8.95,0,0,1,422.4,11.34,8.95,8.95,0,0,1,409.76,24Zm22.73,8.55-7.85-7.82a11,11,0,1,0-1.54,1.56L431,34.12Z"/></clipPath><clipPath id="clip-path-8"><polygon class="cls-1" points="261.75 23.75 258.58 20.77 256.43 23.08 262.06 28.37 274.57 12.79 272.1 10.83 261.75 23.75"/></clipPath></defs><title>chevron-up-icon</title><g class="cls-2"><g class="cls-3"><rect class="cls-4" x="0.04" y="-3.47" width="58.63" height="48.89"/></g></g></svg>