<svg id="Layer_1" data-name="Layer 1" xmlns="http://www.w3.org/2000/svg" xmlns:xlink="http://www.w3.org/1999/xlink" viewBox="0 0 58.71 40.17"><defs><style>.cls-1{fill:none;}.cls-2{clip-path:url(#clip-path);}.cls-3{clip-path:url(#clip-path-2);}.cls-4{clip-path:url(#clip-path-3);}.cls-5{clip-path:url(#clip-path-4);}.cls-6{clip-path:url(#clip-path-5);}.cls-7{clip-path:url(#clip-path-6);}.cls-8{clip-path:url(#clip-path-7);}.cls-9{clip-path:url(#clip-path-8);}.cls-10{clip-path:url(#clip-path-9);}.cls-11{fill:#010101;}</style><clipPath id="clip-path"><polygon class="cls-1" points="-521.64 18.53 -511.92 28.25 -509.49 25.81 -521.64 13.69 -533.79 25.81 -531.35 28.25 -521.64 18.53"/></clipPath><clipPath id="clip-path-2"><polygon class="cls-1" points="-442.93 23.41 -433.21 13.69 -430.77 16.13 -442.93 28.25 -455.08 16.13 -452.64 13.69 -442.93 23.41"/></clipPath><clipPath id="clip-path-3"><path class="cls-1" d="M-206.16,29.9c-5.24-5.66-8-10.68-8-14.92A8,8,0,0,1-212,9a8,8,0,0,1,5.89-2.25A8,8,0,0,1-200.3,9a8.18,8.18,0,0,1,2.23,6C-198.13,19.22-200.88,24.22-206.16,29.9Zm7.23-22.33a10.05,10.05,0,0,0-7.23-2.87,10,10,0,0,0-7.31,2.87A10,10,0,0,0-216.2,15c0,4.92,3.23,10.66,9.32,17l.72.74.72-.74c6.15-6.39,9.28-12,9.32-17A10.06,10.06,0,0,0-198.93,7.57Z"/></clipPath><clipPath id="clip-path-4"><path class="cls-1" d="M-206.16,16.45a1.74,1.74,0,0,1-1.6-1.08,1.73,1.73,0,0,1,.38-1.88,1.74,1.74,0,0,1,1.89-.36,1.74,1.74,0,0,1,1.06,1.61A1.75,1.75,0,0,1-206.16,16.45Zm0-5.73a4,4,0,0,0-4,4,4,4,0,0,0,4,4,4,4,0,0,0,4-4A4,4,0,0,0-206.16,10.72Z"/></clipPath><clipPath id="clip-path-5"><path class="cls-1" d="M-141.24,24A9,9,0,0,1-141,11.62a9,9,0,0,1,12.36-.28,8.94,8.94,0,0,1-.28,12.36A8.94,8.94,0,0,1-141.24,24Zm22.73,8.55-7.84-7.82a11,11,0,0,0-1.25-15.1,11,11,0,0,0-15.14.48A11,11,0,0,0-143,25.24a11,11,0,0,0,15.12,1l7.84,7.85Z"/></clipPath><clipPath id="clip-path-6"><path class="cls-1" d="M-49.53,19.6a3.39,3.39,0,0,1-3.39-3.39,3.39,3.39,0,0,1,3.39-3.39,3.39,3.39,0,0,1,3.39,3.39A3.39,3.39,0,0,1-49.53,19.6Zm0-9a5.65,5.65,0,0,0-5.65,5.65,5.65,5.65,0,0,0,5.65,5.65,5.65,5.65,0,0,0,5.65-5.65A5.65,5.65,0,0,0-49.53,10.56Z"/></clipPath><clipPath id="clip-path-7"><path class="cls-1" d="M-40.08,29.3a1.41,1.41,0,0,0-.25-.61,10.33,10.33,0,0,0-9.05-5.6,10.34,10.34,0,0,0-9.19,5.37,5.26,5.26,0,0,0-.34.82A13.58,13.58,0,0,1-62,14.45,13.56,13.56,0,0,1-49.44,6a13.57,13.57,0,0,1,12.57,8.45A13.58,13.58,0,0,1-40,29.28Zm-17.14,1.47a13,13,0,0,1,.5-1.22,8.1,8.1,0,0,1,7.26-4.3,8.08,8.08,0,0,1,7.14,4.5,11.37,11.37,0,0,1,.43,1.07,13.74,13.74,0,0,1-7.64,2.35A13.61,13.61,0,0,1-57.22,30.77Zm7.69-27A15.83,15.83,0,0,0-65.36,19.6,15.83,15.83,0,0,0-49.53,35.43,15.83,15.83,0,0,0-33.7,19.6,15.83,15.83,0,0,0-49.53,3.77Z"/></clipPath><clipPath id="clip-path-8"><polygon class="cls-1" points="36.37 9.79 29.36 16.81 22.34 9.79 19.57 12.6 26.54 19.62 19.57 26.64 22.34 29.41 29.36 22.43 36.37 29.41 39.15 26.64 32.17 19.62 39.15 12.6 36.37 9.79"/></clipPath><clipPath id="clip-path-9"><rect class="cls-1" x="-212.45" y="-1217.14" width="2707.4" height="1502.35"/></clipPath></defs><title>close-icon</title><g class="cls-9"><g class="cls-10"><rect class="cls-11" x="-0.25" y="-10.03" width="59.22" height="59.26"/></g></g></svg>