<svg id="Layer_1" data-name="Layer 1" xmlns="http://www.w3.org/2000/svg" xmlns:xlink="http://www.w3.org/1999/xlink" viewBox="0 0 58.71 40.17"><defs><style>.cls-1{fill:none;}.cls-2{clip-path:url(#clip-path);}.cls-3{clip-path:url(#clip-path-2);}.cls-4{clip-path:url(#clip-path-3);}.cls-5{clip-path:url(#clip-path-4);}.cls-6{clip-path:url(#clip-path-5);}.cls-7{fill:#010101;}.cls-8{clip-path:url(#clip-path-6);}.cls-9{clip-path:url(#clip-path-8);}.cls-10{clip-path:url(#clip-path-9);}.cls-11{clip-path:url(#clip-path-10);}.cls-12{clip-path:url(#clip-path-11);}.cls-13{clip-path:url(#clip-path-12);}</style><clipPath id="clip-path"><polygon class="cls-1" points="-285.5 18.53 -275.78 28.25 -273.35 25.81 -285.5 13.69 -297.65 25.81 -295.21 28.25 -285.5 18.53"/></clipPath><clipPath id="clip-path-2"><polygon class="cls-1" points="-206.78 23.41 -197.07 13.69 -194.63 16.13 -206.78 28.25 -218.94 16.13 -216.5 13.69 -206.78 23.41"/></clipPath><clipPath id="clip-path-3"><path class="cls-1" d="M-139.34,15.28V10.77h4.51V13h2.25V10.77h9V13h2.25V10.77h4.51v4.51Zm22.54,15.77h-22.54V17.53h22.54Zm0-22.53h-4.51V6.27h-2.25V8.52h-9V6.27h-2.25V8.52h-4.51a2.25,2.25,0,0,0-2.25,2.25V31.05a2.25,2.25,0,0,0,2.25,2.25h22.54a2.25,2.25,0,0,0,2.25-2.25V10.77A2.25,2.25,0,0,0-116.8,8.52Z"/></clipPath><clipPath id="clip-path-4"><path class="cls-1" d="M30,29.9C24.74,24.24,22,19.22,22,15A8,8,0,0,1,24.1,9,8,8,0,0,1,30,6.71,8,8,0,0,1,35.84,9a8.18,8.18,0,0,1,2.23,6C38,19.22,35.26,24.22,30,29.9ZM37.21,7.57A10.05,10.05,0,0,0,30,4.7a10,10,0,0,0-7.31,2.87A10,10,0,0,0,19.94,15c0,4.92,3.23,10.66,9.32,17l.72.74.72-.74C36.85,25.68,40,20,40,15A10.06,10.06,0,0,0,37.21,7.57Z"/></clipPath><clipPath id="clip-path-5"><rect class="cls-1" x="-455.97" y="-394.9" width="1371.5" height="761.05"/></clipPath><clipPath id="clip-path-6"><path class="cls-1" d="M30,16.45a1.73,1.73,0,0,1-1.21-3,1.73,1.73,0,1,1,1.21,3Zm0-5.73a4,4,0,1,0,4,4A4,4,0,0,0,30,10.72Z"/></clipPath><clipPath id="clip-path-8"><path class="cls-1" d="M94.9,24a8.95,8.95,0,0,1,12.64-12.64A8.95,8.95,0,0,1,94.9,24Zm22.73,8.55-7.84-7.82a11,11,0,1,0-1.54,1.56l7.85,7.85Z"/></clipPath><clipPath id="clip-path-9"><path class="cls-1" d="M186.61,19.6A3.39,3.39,0,1,1,190,16.21,3.39,3.39,0,0,1,186.61,19.6Zm0-9a5.65,5.65,0,1,0,5.65,5.65A5.65,5.65,0,0,0,186.61,10.56Z"/></clipPath><clipPath id="clip-path-10"><path class="cls-1" d="M196.06,29.3a1.41,1.41,0,0,0-.25-.61,10.33,10.33,0,0,0-18.24-.23,5.26,5.26,0,0,0-.34.82,13.57,13.57,0,1,1,19,0Zm-17.14,1.47a13,13,0,0,1,.5-1.22,8.1,8.1,0,0,1,14.41.2c.15.34.29.7.42,1.07a13.56,13.56,0,0,1-15.33-.05Zm7.69-27A15.83,15.83,0,1,0,202.44,19.6,15.83,15.83,0,0,0,186.61,3.77Z"/></clipPath><clipPath id="clip-path-11"><polygon class="cls-1" points="-53.11 23.75 -56.27 20.77 -58.43 23.08 -52.79 28.37 -40.28 12.79 -42.76 10.83 -53.11 23.75"/></clipPath><clipPath id="clip-path-12"><polygon class="cls-1" points="272.51 9.79 265.5 16.81 258.48 9.79 255.71 12.6 262.68 19.62 255.71 26.64 258.48 29.41 265.5 22.43 272.51 29.41 275.29 26.64 268.31 19.62 275.29 12.6 272.51 9.79"/></clipPath></defs><title>location-icon</title><g class="cls-5"><g class="cls-6"><rect class="cls-7" x="9.88" y="-5.35" width="40.19" height="48.2"/></g></g><g class="cls-8"><g class="cls-6"><rect class="cls-7" x="15.92" y="0.68" width="28.11" height="28.11"/></g></g></svg>