<svg xmlns="http://www.w3.org/2000/svg" viewBox="0 0 70.88 72.83"><title>wing-flashcrow</title><g id="Layer_2" data-name="Layer 2"><g id="Layer_1-2" data-name="Layer 1"><path d="M0,72.83v-.89C0,37.43,22.58,26.62,44.41,16.16,54.46,11.38,64,6.74,70.88,0,69.14,15.38,56.6,22.38,44.39,29.23c-2.52,1.42-4.91,2.75-7.22,4.17a1,1,0,0,0,1.09,1.77c2.27-1.39,4.64-2.72,7.15-4.12,7.91-4.43,16.47-9.22,22-16.63-2.48,21.5-23.7,31.29-42.55,40l-4.44,2a1,1,0,0,0,.44,2,1,1,0,0,0,.44-.1c1.45-.67,2.93-1.33,4.43-2C37.82,50.74,50.86,44.73,59.58,35.5c-1,10.8-7.88,19.57-20.43,26.1C29.46,66.58,16.65,70.27,0,72.83Z"/></g></g></svg>