<svg id="Layer_1" data-name="Layer 1" xmlns="http://www.w3.org/2000/svg" xmlns:xlink="http://www.w3.org/1999/xlink" viewBox="0 0 58.71 40.17"><defs><style>.cls-1{fill:none;}.cls-2{clip-path:url(#clip-path);}.cls-3{clip-path:url(#clip-path-2);}.cls-4{clip-path:url(#clip-path-3);}.cls-5{clip-path:url(#clip-path-4);}.cls-6{clip-path:url(#clip-path-5);}.cls-7{clip-path:url(#clip-path-6);}.cls-8{clip-path:url(#clip-path-7);}.cls-9{fill:#010101;}.cls-10{clip-path:url(#clip-path-8);}.cls-11{clip-path:url(#clip-path-9);}.cls-12{clip-path:url(#clip-path-10);}.cls-13{clip-path:url(#clip-path-11);}</style><clipPath id="clip-path"><polygon class="cls-1" points="-364.21 18.53 -354.5 28.25 -352.06 25.81 -364.21 13.69 -376.36 25.81 -373.93 28.25 -364.21 18.53"/></clipPath><clipPath id="clip-path-2"><polygon class="cls-1" points="-285.5 23.41 -275.78 13.69 -273.35 16.13 -285.5 28.25 -297.65 16.13 -295.21 13.69 -285.5 23.41"/></clipPath><clipPath id="clip-path-3"><path class="cls-1" d="M-218,15.28V10.77h4.51V13h2.25V10.77h9V13H-200V10.77h4.5v4.51Zm22.53,15.77H-218V17.53h22.53Zm0-22.53H-200V6.27h-2.26V8.52h-9V6.27h-2.25V8.52H-218a2.25,2.25,0,0,0-2.25,2.25V31.05A2.25,2.25,0,0,0-218,33.3h22.53a2.24,2.24,0,0,0,2.25-2.25V10.77A2.25,2.25,0,0,0-195.52,8.52Z"/></clipPath><clipPath id="clip-path-4"><path class="cls-1" d="M-48.73,29.9c-5.25-5.66-8-10.68-8-14.92a8,8,0,0,1,2.15-6,8,8,0,0,1,5.89-2.25A8,8,0,0,1-42.87,9a8.22,8.22,0,0,1,2.23,6C-40.7,19.22-43.45,24.22-48.73,29.9Zm7.22-22.33A10,10,0,0,0-48.73,4.7,10,10,0,0,0-56,7.57,10,10,0,0,0-58.77,15c0,4.92,3.23,10.66,9.31,17l.73.74.72-.74c6.14-6.39,9.28-12,9.32-17A10,10,0,0,0-41.51,7.57Z"/></clipPath><clipPath id="clip-path-5"><path class="cls-1" d="M-48.73,16.45a1.73,1.73,0,0,1-1.6-1.08,1.71,1.71,0,0,1,.38-1.88,1.74,1.74,0,0,1,1.89-.36A1.71,1.71,0,0,1-47,14.74,1.73,1.73,0,0,1-48.73,16.45Zm0-5.73a4,4,0,0,0-4,4,4,4,0,0,0,4,4,4,4,0,0,0,4-4A4,4,0,0,0-48.73,10.72Z"/></clipPath><clipPath id="clip-path-6"><path class="cls-1" d="M16.19,24A8.95,8.95,0,0,1,28.83,11.34,8.95,8.95,0,0,1,16.19,24Zm22.73,8.55-7.85-7.82a11,11,0,1,0-1.54,1.56l7.85,7.85Z"/></clipPath><clipPath id="clip-path-7"><rect class="cls-1" x="-1208.19" y="-430.38" width="1501.56" height="833.22"/></clipPath><clipPath id="clip-path-8"><path class="cls-1" d="M107.9,19.6a3.39,3.39,0,1,1,3.39-3.39A3.39,3.39,0,0,1,107.9,19.6Zm0-9a5.65,5.65,0,1,0,5.65,5.65A5.65,5.65,0,0,0,107.9,10.56Z"/></clipPath><clipPath id="clip-path-9"><path class="cls-1" d="M117.35,29.3a1.55,1.55,0,0,0-.25-.61,10.33,10.33,0,0,0-18.25-.23,6.45,6.45,0,0,0-.34.82,13.57,13.57,0,1,1,18.95,0Zm-17.14,1.47a10.77,10.77,0,0,1,.5-1.22,8.09,8.09,0,0,1,14.4.2,11.37,11.37,0,0,1,.43,1.07,13.79,13.79,0,0,1-7.64,2.35A13.61,13.61,0,0,1,100.21,30.77Zm7.69-27A15.83,15.83,0,1,0,123.73,19.6,15.83,15.83,0,0,0,107.9,3.77Z"/></clipPath><clipPath id="clip-path-10"><polygon class="cls-1" points="-131.82 23.75 -134.99 20.77 -137.14 23.08 -131.51 28.37 -119 12.79 -121.47 10.83 -131.82 23.75"/></clipPath><clipPath id="clip-path-11"><polygon class="cls-1" points="193.8 9.79 186.78 16.81 179.77 9.79 176.99 12.6 183.97 19.62 176.99 26.64 179.77 29.41 186.78 22.43 193.8 29.41 196.57 26.64 189.6 19.62 196.57 12.6 193.8 9.79"/></clipPath></defs><title>search-icon</title><g class="cls-7"><g class="cls-8"><rect class="cls-9" x="0.53" y="-4.18" width="49.38" height="49.29"/></g></g></svg>