<svg id="Layer_1" data-name="Layer 1" xmlns="http://www.w3.org/2000/svg" xmlns:xlink="http://www.w3.org/1999/xlink" viewBox="0 0 58.71 40.17"><defs><style>.cls-1{fill:none;}.cls-2{clip-path:url(#clip-path);}.cls-3{fill:#010101;}.cls-4{clip-path:url(#clip-path-2);}.cls-5{clip-path:url(#clip-path-3);}.cls-6{clip-path:url(#clip-path-4);}.cls-7{clip-path:url(#clip-path-5);}.cls-8{clip-path:url(#clip-path-6);}.cls-9{clip-path:url(#clip-path-7);}.cls-10{clip-path:url(#clip-path-8);}.cls-11{clip-path:url(#clip-path-9);}</style><clipPath id="clip-path"><path class="cls-1" d="M36.51,27.67a13.93,13.93,0,0,1-19.25,0L11.68,22.3l5.58-5.25a14,14,0,0,1,19.25,0l5.58,5.25Zm1.91-12.61a16.76,16.76,0,0,0-23.06,0L7.85,22.3l7.51,7.24a16.76,16.76,0,0,0,23.06,0l7.5-7.24Z"/></clipPath><clipPath id="clip-path-2"><path class="cls-1" d="M26.89,24.92a2.62,2.62,0,1,1,2.72-2.62A2.66,2.66,0,0,1,26.89,24.92Zm0-7.87a5.25,5.25,0,1,0,5.44,5.25A5.34,5.34,0,0,0,26.89,17.05Z"/></clipPath><clipPath id="clip-path-3"><polygon class="cls-1" points="108.07 18.53 117.79 28.25 120.22 25.81 108.07 13.69 95.92 25.81 98.36 28.25 108.07 18.53"/></clipPath><clipPath id="clip-path-4"><polygon class="cls-1" points="186.78 23.41 196.5 13.69 198.94 16.13 186.78 28.25 174.63 16.13 177.07 13.69 186.78 23.41"/></clipPath><clipPath id="clip-path-5"><path class="cls-1" d="M254.23,15.28V10.77h4.51V13H261V10.77h9V13h2.26V10.77h4.5v4.51Zm22.53,15.77H254.23V17.53h22.53Zm0-22.53h-4.5V6.27H270V8.52h-9V6.27h-2.25V8.52h-4.51A2.25,2.25,0,0,0,252,10.77V31.05a2.25,2.25,0,0,0,2.25,2.25h22.53A2.25,2.25,0,0,0,279,31.05V10.77A2.26,2.26,0,0,0,276.76,8.52Z"/></clipPath><clipPath id="clip-path-6"><path class="cls-1" d="M423.55,29.9c-5.24-5.66-8-10.68-8-14.92a8,8,0,0,1,2.14-6,8.77,8.77,0,0,1,11.75,0,8.18,8.18,0,0,1,2.23,6C431.58,19.22,428.83,24.22,423.55,29.9Zm7.23-22.33a10.64,10.64,0,0,0-14.54,0A10,10,0,0,0,413.51,15c0,4.92,3.23,10.66,9.31,17l.73.74.72-.74c6.15-6.39,9.28-12,9.32-17A10.06,10.06,0,0,0,430.78,7.57Z"/></clipPath><clipPath id="clip-path-7"><path class="cls-1" d="M423.55,16.45a1.73,1.73,0,1,1,.67-3.32,1.71,1.71,0,0,1,1,1.61A1.73,1.73,0,0,1,423.55,16.45Zm0-5.73a4,4,0,1,0,4,4A4,4,0,0,0,423.55,10.72Z"/></clipPath><clipPath id="clip-path-8"><path class="cls-1" d="M488.47,24a8.95,8.95,0,0,1,12.64-12.64A8.95,8.95,0,0,1,488.47,24Zm22.73,8.55-7.85-7.82a11,11,0,1,0-1.53,1.56l7.84,7.85Z"/></clipPath><clipPath id="clip-path-9"><polygon class="cls-1" points="340.46 23.75 337.29 20.77 335.14 23.08 340.78 28.37 353.28 12.79 350.81 10.83 340.46 23.75"/></clipPath></defs><title>view-icon</title><g class="cls-2"><rect class="cls-3" x="-1.67" y="0.94" width="57.11" height="42.71"/></g><g class="cls-4"><rect class="cls-3" x="11.93" y="7.54" width="29.92" height="29.52"/></g></svg>