<svg id="Layer_1" data-name="Layer 1" xmlns="http://www.w3.org/2000/svg" xmlns:xlink="http://www.w3.org/1999/xlink" viewBox="0 0 58.71 40.17"><defs><style>.cls-1{fill:none;}.cls-2{clip-path:url(#clip-path);}.cls-3{clip-path:url(#clip-path-2);}.cls-4{clip-path:url(#clip-path-3);}.cls-5{clip-path:url(#clip-path-4);}.cls-6{clip-path:url(#clip-path-5);}.cls-7{clip-path:url(#clip-path-6);}.cls-8{clip-path:url(#clip-path-7);}.cls-9{clip-path:url(#clip-path-8);}</style><clipPath id="clip-path"><polygon class="cls-1" points="-600.35 18.53 -590.64 28.25 -588.2 25.81 -600.35 13.69 -612.5 25.81 -610.07 28.25 -600.35 18.53"/></clipPath><clipPath id="clip-path-2"><polygon class="cls-1" points="-521.64 23.41 -511.92 13.69 -509.49 16.13 -521.64 28.25 -533.79 16.13 -531.35 13.69 -521.64 23.41"/></clipPath><clipPath id="clip-path-3"><path class="cls-1" d="M-284.88,29.9c-5.24-5.66-8-10.68-8-14.92a8,8,0,0,1,2.15-6,8,8,0,0,1,5.88-2.25A8,8,0,0,1-279,9a8.22,8.22,0,0,1,2.23,6C-276.84,19.22-279.59,24.22-284.88,29.9Zm7.23-22.33a10,10,0,0,0-7.23-2.87,10,10,0,0,0-7.3,2.87A10.08,10.08,0,0,0-294.92,15c0,4.92,3.24,10.66,9.32,17l.72.74.73-.74c6.14-6.39,9.27-12,9.31-17A10,10,0,0,0-277.65,7.57Z"/></clipPath><clipPath id="clip-path-4"><path class="cls-1" d="M-284.88,16.45a1.72,1.72,0,0,1-1.59-1.08,1.71,1.71,0,0,1,.38-1.88,1.74,1.74,0,0,1,1.89-.36,1.73,1.73,0,0,1,1.05,1.61A1.73,1.73,0,0,1-284.88,16.45Zm0-5.73a4,4,0,0,0-4,4,4,4,0,0,0,4,4,4,4,0,0,0,4-4A4,4,0,0,0-284.88,10.72Z"/></clipPath><clipPath id="clip-path-5"><path class="cls-1" d="M-219.95,24a8.94,8.94,0,0,1,.28-12.36,9,9,0,0,1,12.36-.28,9,9,0,0,1-.28,12.36A8.94,8.94,0,0,1-219.95,24Zm22.73,8.55-7.85-7.82a11,11,0,0,0-1.24-15.1,11,11,0,0,0-15.14.48,11,11,0,0,0-.28,15.15,11,11,0,0,0,15.12,1l7.85,7.85Z"/></clipPath><clipPath id="clip-path-6"><path class="cls-1" d="M-128.24,19.6a3.39,3.39,0,0,1-3.39-3.39,3.39,3.39,0,0,1,3.39-3.39,3.39,3.39,0,0,1,3.39,3.39A3.39,3.39,0,0,1-128.24,19.6Zm0-9a5.66,5.66,0,0,0-5.66,5.65,5.66,5.66,0,0,0,5.66,5.65,5.65,5.65,0,0,0,5.65-5.65A5.65,5.65,0,0,0-128.24,10.56Z"/></clipPath><clipPath id="clip-path-7"><path class="cls-1" d="M-118.79,29.3a1.55,1.55,0,0,0-.25-.61,10.33,10.33,0,0,0-9.06-5.6,10.36,10.36,0,0,0-9.19,5.37,6.45,6.45,0,0,0-.34.82,13.58,13.58,0,0,1-3.09-14.83A13.57,13.57,0,0,1-128.15,6a13.56,13.56,0,0,1,12.56,8.45,13.58,13.58,0,0,1-3.09,14.83Zm-17.14,1.47a10.77,10.77,0,0,1,.5-1.22,8.1,8.1,0,0,1,7.26-4.3,8.09,8.09,0,0,1,7.14,4.5c.16.34.29.7.43,1.07a13.79,13.79,0,0,1-7.64,2.35A13.61,13.61,0,0,1-135.93,30.77Zm7.69-27A15.83,15.83,0,0,0-144.07,19.6a15.83,15.83,0,0,0,15.83,15.83A15.83,15.83,0,0,0-112.41,19.6,15.83,15.83,0,0,0-128.24,3.77Z"/></clipPath><clipPath id="clip-path-8"><polygon class="cls-1" points="-42.34 9.79 -49.36 16.81 -56.37 9.79 -59.15 12.6 -52.17 19.62 -59.15 26.64 -56.37 29.41 -49.36 22.43 -42.34 29.41 -39.57 26.64 -46.54 19.62 -39.57 12.6 -42.34 9.79"/></clipPath></defs><title>close-icon copy</title><polygon points="27.44 24.6 31.28 24.6 31.85 10.16 26.77 10.16 27.44 24.6"/><circle cx="29.36" cy="27.97" r="2.04"/></svg>