<svg width="40" height="40" viewBox="0 0 40 40" fill="none" xmlns="http://www.w3.org/2000/svg">
<circle cx="20" cy="20" r="15" fill="#EFD3E9" stroke="#B02391"/>
<path d="M24.5 21.5H21.5V24.5H18.5V21.5H15.5V18.5H18.5V15.5H21.5V18.5H24.5V21.5ZM25.25 13.25H14.75C13.9175 13.25 13.25 13.9175 13.25 14.75V25.25C13.25 25.6478 13.408 26.0294 13.6893 26.3107C13.9706 26.592 14.3522 26.75 14.75 26.75H25.25C25.6478 26.75 26.0294 26.592 26.3107 26.3107C26.592 26.0294 26.75 25.6478 26.75 25.25V14.75C26.75 13.9175 26.075 13.25 25.25 13.25Z" fill="#B02391"/>
</svg>
